<?xml version="1.0" encoding="UTF-8"?>
<svg width="65px" height="49px" viewBox="0 0 65 49" version="1.1" xmlns="http://www.w3.org/2000/svg" xmlns:xlink="http://www.w3.org/1999/xlink">
    <!-- Generator: Sketch 60 (88103) - https://sketch.com -->
    <title>DN Logo/Color/Vertical</title>
    <desc>Created with Sketch.</desc>
    <g id="Symbols" stroke="none" stroke-width="1" fill="none" fill-rule="evenodd">
        <g id="Component/Navigation/Desktop/Positive/Banking" transform="translate(-141.000000, -15.000000)">
            <g id="DN-Logo/Color/Vertical" transform="translate(140.000000, 14.000000)">
                <g id="Group" transform="translate(1.870205, 1.875000)">
                    <path d="M27.6764098,18.22155 L27.6764098,18.9068 L27.6764098,33.74705 C32.8753293,30.53705 36.3496707,24.77905 36.3496707,18.22155 C36.3496707,13.7263 34.7141145,9.60905 32.0130403,6.42805 C29.3117168,9.60905 27.6764098,13.7263 27.6764098,18.22155" id="Fill-1" fill="#470A68"></path>
                    <path d="M-3.97903932e-13,-2.84217094e-14 L-3.97903932e-13,36.443 L18.1746483,36.443 C21.6554731,36.443 24.9096292,35.45525 27.6762852,33.747 L27.6762852,18.90675 L27.6762852,18.2215 C27.6762852,23.47425 23.4139642,27.74775 18.1746483,27.74775 L8.67301151,27.74775 L8.67301151,8.6955 L18.1746483,8.6955 C23.4139642,8.6955 27.6762852,12.96875 27.6762852,18.2215 C27.6762852,13.72625 29.3118414,9.609 32.0129156,6.428 C28.6767199,2.49925 23.7124488,-2.84217094e-14 18.1746483,-2.84217094e-14 L-3.97903932e-13,-2.84217094e-14 Z" id="Fill-3" fill="#004B87"></path>
                    <path d="M45.6938114,0.000725 C40.2193485,0.047475 35.3176669,2.536225 32.0128907,6.427975 C34.7142142,9.608975 36.3495211,13.726225 36.3495211,18.221475 C36.3495211,12.872975 40.7686899,8.539975 46.1386707,8.699725 C51.3066694,8.853475 55.3527948,13.240725 55.3527948,18.424225 L55.3527948,36.442975 L64.0260556,36.442975 L64.0260556,18.516975 C64.0260556,8.408225 55.7764584,-0.085525 45.6938114,0.000725" id="Fill-6" fill="#A6192E"></path>
                    <path d="M27.6764098,33.74695 L27.6764098,36.44295 L36.3496707,36.44295 L36.3496707,18.22145 C36.3496707,24.7792 32.8753293,30.53695 27.6764098,33.74695" id="Fill-9" fill="#AA182C"></path>
                    <path d="M40.7706349,41.4403 C40.481626,41.4403 40.2462295,41.67605 40.2462295,41.96605 C40.2462295,42.25555 40.481626,42.4913 40.7706349,42.4913 C41.0593945,42.4913 41.2947909,42.25555 41.2947909,41.96605 C41.2947909,41.67605 41.0593945,41.4403 40.7706349,41.4403 L40.7706349,41.4403 Z M6.92915793,41.4403 C6.64014898,41.4403 6.40525128,41.67605 6.40525128,41.96605 C6.40525128,42.25555 6.64014898,42.4913 6.92915793,42.4913 C7.21816688,42.4913 7.45331394,42.25555 7.45331394,41.96605 C7.45331394,41.67605 7.21816688,41.4403 6.92915793,41.4403 L6.92915793,41.4403 Z M24.2846566,47.9998 L25.1322334,47.9998 L25.1322334,41.0938 L24.2846566,41.0938 L24.2846566,47.9998 Z M50.5193881,45.5393 C50.5193881,46.39855 49.8840173,47.3263 48.8573996,47.3263 C47.9210505,47.3263 47.2412935,46.57455 47.2412935,45.5393 L47.2412935,45.52055 C47.2412935,44.47405 47.9058395,43.74305 48.8573996,43.74305 C49.674305,43.74305 50.5193881,44.4078 50.5193881,45.52055 L50.5193881,45.5393 Z M50.4914597,43.84905 C50.0288958,43.26355 49.436415,42.96705 48.7277321,42.96705 C47.587406,42.96705 46.3752641,43.8653 46.3752641,45.5298 L46.3752641,45.54855 C46.3752641,47.2068 47.587406,48.1018 48.7277321,48.1018 C49.4369137,48.1018 50.0156797,47.7993 50.4914597,47.1778 L50.4914597,47.9998 L51.3392858,47.9998 L51.3392858,41.0938 L50.4914597,41.0938 L50.4914597,43.84905 Z M38.2894968,46.4463 L34.3106988,41.37205 L33.5254623,41.37205 L33.5254623,47.9998 L34.3735377,47.9998 L34.3735377,42.80455 L38.4336272,47.97405 L38.4538254,47.9998 L39.1373229,47.9998 L39.1373229,41.37205 L38.2894968,41.37205 L38.2894968,46.4463 Z M29.836172,45.5393 C29.836172,46.39855 29.2008012,47.3263 28.1739341,47.3263 C27.237585,47.3263 26.5580774,46.57455 26.5580774,45.5393 L26.5580774,45.52055 C26.5580774,44.47405 27.2226234,43.74305 28.1739341,43.74305 C28.9910889,43.74305 29.836172,44.4078 29.836172,45.52055 L29.836172,45.5393 Z M29.808493,43.84905 C29.3456797,43.26355 28.7531988,42.96705 28.044516,42.96705 C26.9041899,42.96705 25.6917986,43.8653 25.6917986,45.5298 L25.6917986,45.54855 C25.6917986,47.2068 26.9041899,48.1018 28.044516,48.1018 C28.7536976,48.1018 29.3324636,47.7993 29.808493,47.1778 L29.808493,47.9998 L30.6560697,47.9998 L30.6560697,41.0938 L29.808493,41.0938 L29.808493,43.84905 Z M40.305328,47.9998 L41.1529047,47.9998 L41.1529047,43.06905 L40.305328,43.06905 L40.305328,47.9998 Z M22.9894776,45.5578 C22.9894776,46.57105 22.2630902,47.3353 21.2995607,47.3353 C20.3467538,47.3353 19.6006669,46.54655 19.6006669,45.5393 L19.6006669,45.52055 C19.6006669,44.5018 20.3230646,43.7338 21.2811081,43.7338 C22.2391515,43.7338 22.9894776,44.5268 22.9894776,45.5393 L22.9894776,45.5578 Z M21.2995607,42.96705 C19.8609994,42.96705 18.7343881,44.0968 18.7343881,45.5393 L18.7343881,45.5578 C18.7343881,46.9893 19.8530198,48.1113 21.2811081,48.1113 C22.724906,48.1113 23.8557564,46.9813 23.8557564,45.5393 L23.8557564,45.52055 C23.8557564,44.0888 22.7331349,42.96705 21.2995607,42.96705 L21.2995607,42.96705 Z M46.5388446,43.0693 L45.5713254,43.0693 L44.1896183,44.88005 L42.8074124,43.0693 L41.8226873,43.0693 L43.678429,45.49255 L41.7481285,47.9998 L42.715149,47.9998 L44.1709162,46.0873 L45.6174572,47.9998 L46.6119073,47.9998 L44.6728792,45.47455 L46.5388446,43.0693 Z M63.2225659,41.81205 C63.4449955,41.81205 63.6242858,41.8518 63.8978344,41.93005 L63.9841132,41.9548 L63.9841132,41.19555 L63.9392283,41.1793 C63.6941068,41.09105 63.4597078,41.0548 63.1300531,41.0548 C62.681952,41.0548 62.3104047,41.19005 62.0553088,41.44555 C61.7700403,41.7318 61.6191771,42.1748 61.6191771,42.72705 L61.6191771,43.0768 L60.9626106,43.0768 L60.9626106,43.8338 L61.6191771,43.8338 L61.6191771,47.99805 L62.4672526,47.99805 L62.4672526,43.8338 L63.9748868,43.8338 L63.9748868,43.0858 L62.4580262,43.0858 L62.4580262,42.7643 C62.4580262,42.11455 62.7009035,41.81205 63.2225659,41.81205 L63.2225659,41.81205 Z M6.49950959,47.9998 L7.34733568,47.9998 L7.34733568,43.25555 L6.49950959,43.25555 L6.49950959,47.9998 Z M4.93352494,44.70455 C4.93352494,46.16605 3.85828197,47.1868 2.31848018,47.1868 L0.869196292,47.1868 L0.869196292,42.18505 L2.31848018,42.18505 C3.85828197,42.18505 4.93352494,43.21355 4.93352494,44.6858 L4.93352494,44.70455 Z M2.31848018,41.37205 L0.00291751918,41.37205 L0.00291751918,47.9998 L2.31848018,47.9998 C4.35176662,47.9998 5.8277321,46.60605 5.8277321,44.6858 L5.8277321,44.6673 C5.8277321,42.75805 4.35176662,41.37205 2.31848018,41.37205 L2.31848018,41.37205 Z M56.0965876,45.5578 C56.0965876,46.57105 55.3702001,47.3353 54.4069201,47.3353 C53.4538638,47.3353 52.7077769,46.54655 52.7077769,45.5393 L52.7077769,45.52055 C52.7077769,44.5018 53.4304239,43.7338 54.388218,43.7338 C55.3462615,43.7338 56.0965876,44.5268 56.0965876,45.5393 L56.0965876,45.5578 Z M54.4069201,42.96705 C52.9683587,42.96705 51.8412487,44.0968 51.8412487,45.5393 L51.8412487,45.5578 C51.8412487,46.9893 52.9601298,48.1113 54.388218,48.1113 C55.8317666,48.1113 56.9628664,46.9813 56.9628664,45.5393 L56.9628664,45.52055 C56.9628664,44.0888 55.8402449,42.96705 54.4069201,42.96705 L54.4069201,42.96705 Z M17.4167666,45.54855 C17.4167666,46.59505 16.7524699,47.3263 15.8009098,47.3263 C14.9840045,47.3263 14.1389214,46.6578 14.1389214,45.5393 L14.1389214,45.52055 C14.1389214,44.66555 14.7742922,43.74305 15.8009098,43.74305 C16.737259,43.74305 17.4167666,44.49455 17.4167666,45.5298 L17.4167666,45.54855 Z M15.9305774,42.96705 C15.2213958,42.96705 14.6423804,43.2698 14.1666004,43.8913 L14.1666004,41.0938 L13.3187743,41.0938 L13.3187743,47.9998 L14.1666004,47.9998 L14.1666004,47.2198 C14.6294137,47.8053 15.2216451,48.1018 15.9305774,48.1018 C17.0709035,48.1018 18.2830454,47.2038 18.2830454,45.5393 L18.2830454,45.52055 C18.2830454,43.8623 17.0709035,42.96705 15.9305774,42.96705 L15.9305774,42.96705 Z M58.3443242,44.10155 L58.3443242,43.06755 L57.4964981,43.06755 L57.4964981,47.99805 L58.3443242,47.99805 L58.3443242,46.01955 C58.3443242,44.7258 59.0622334,43.88955 60.1728855,43.88955 L60.2963191,43.88955 L60.2963191,42.9868 L60.2312359,42.98405 C59.4504879,42.95405 58.7622526,43.3653 58.3443242,44.10155 L58.3443242,44.10155 Z M8.93152366,45.1838 C9.05645332,44.3098 9.65516816,43.7058 10.4087359,43.7058 C11.3433395,43.7058 11.7677513,44.4558 11.859516,45.1838 L8.93152366,45.1838 Z M10.4271886,42.96705 C9.08089066,42.96705 8.06549425,44.0728 8.06549425,45.5393 C8.06549425,47.00555 9.120539,48.1113 10.5199508,48.1113 C11.3468306,48.1113 11.9702321,47.8268 12.5407692,47.18905 L12.5861528,47.1383 L12.0425467,46.65055 L11.997163,46.6978 C11.5707564,47.14555 11.107195,47.35405 10.5384035,47.35405 C9.68808376,47.35405 9.05021931,46.77055 8.93077558,45.89455 L12.7095863,45.89455 L12.7148229,45.8323 C12.724548,45.7183 12.724548,45.64305 12.724548,45.5763 C12.724548,44.0158 11.801415,42.96705 10.4271886,42.96705 L10.4271886,42.96705 Z" id="Fill-11" fill="#004B87"></path>
                </g>
            </g>
        </g>
    </g>
</svg>