<svg width="1436" height="658" viewBox="0 0 1436 658" fill="none" xmlns="http://www.w3.org/2000/svg">
<g style="mix-blend-mode:lighten" opacity="0.625408">
<path fill-rule="evenodd" clip-rule="evenodd" d="M-5.05447e-05 422.047C12.1304 407.073 36.4149 384.886 53.4062 372.656C79.7309 353.709 119.41 349.5 150.781 347.672C205.395 344.49 251.133 357.326 305.734 363.375C348.92 368.16 389.229 365.185 431.328 356.062C438.533 354.501 445.721 352.698 452.641 350.156C493.847 335.021 534.859 319.345 575.625 303.062C595.346 295.186 611.672 284.79 633.578 283.297C745.857 275.644 858.605 327.054 969.984 299.547C1018.78 287.497 1060.42 260.367 1098.59 228.266C1125.24 205.853 1149.84 177.43 1183.84 165.391C1197.28 160.635 1210.63 155.284 1224.61 152.531C1254.96 146.553 1284.87 150.203 1313.97 138.516C1350.93 123.67 1381.94 99.1723 1412.17 73.3906C1418.06 68.3707 1421.7 61.1407 1427.25 55.75C1481.36 3.17485 1417.58 71.74 1459.28 26V743.172H-4.04785L-5.05447e-05 422.047Z" fill="url(#paint0_linear)" fill-opacity="0.45"/>
</g>
<path d="M-6 423.047C6.13042 408.073 30.4149 385.886 47.4062 373.656C73.731 354.709 113.41 350.5 144.781 348.672C199.395 345.49 245.133 358.326 299.734 364.375C342.92 369.16 383.229 366.185 425.328 357.062C432.533 355.501 439.721 353.698 446.641 351.156C487.847 336.021 528.859 320.345 569.625 304.062C589.346 296.186 605.672 285.79 627.578 284.297C739.857 276.644 852.605 328.054 963.984 300.547C1012.78 288.497 1054.42 261.367 1092.59 229.266C1119.24 206.853 1143.84 178.43 1177.84 166.391C1191.28 161.635 1204.63 156.284 1218.61 153.531C1248.96 147.553 1278.87 151.203 1307.97 139.516C1344.93 124.67 1375.94 100.172 1406.17 74.3906C1412.06 69.3707 1415.7 62.1407 1421.25 56.75C1475.36 4.17486 1459 98 1459 98" stroke="#0CE8E2" stroke-width="3"/>
<path d="M-9.05469 414.133C112.194 449.215 116.15 338.68 226 332C321.228 326.209 312.002 332.038 400.016 334.172C488.029 336.306 526.819 341.644 568.242 337.648C622.575 332.408 669.7 304.638 720 286.484C748.017 276.373 794.117 264.025 820.617 258.539C845.439 253.401 891.816 263.598 907.016 264.945C918.767 265.987 953.186 265.984 965.562 264.852C1046.65 257.431 1073.88 240.764 1079 239C1084.12 237.236 1146.97 210.942 1186.07 187.266C1208.45 173.715 1230.55 141.13 1251.09 123.273C1290.47 89.0235 1347.54 93.7021 1394.98 86.8281C1427.69 82.089 1425.43 76.3237 1456.91 59.5234C1478.35 48.0766 1518.1 32.1668 1511.61 1.0625" stroke="#3378E2" stroke-width="3"/>
<path fill-rule="evenodd" clip-rule="evenodd" d="M74.7345 368.469C79.5585 368.469 83.469 364.558 83.469 359.735C83.469 354.911 79.5585 351 74.7345 351C69.9106 351 66 354.911 66 359.735C66 364.558 69.9106 368.469 74.7345 368.469Z" fill="#3C88B5"/>
<path fill-rule="evenodd" clip-rule="evenodd" d="M350.735 377.469C355.558 377.469 359.469 373.558 359.469 368.735C359.469 363.911 355.558 360 350.735 360C345.911 360 342 363.911 342 368.735C342 373.558 345.911 377.469 350.735 377.469Z" fill="#3C88B5"/>
<path fill-rule="evenodd" clip-rule="evenodd" d="M634.735 290.469C639.558 290.469 643.469 286.558 643.469 281.735C643.469 276.911 639.558 273 634.735 273C629.911 273 626 276.911 626 281.735C626 286.558 629.911 290.469 634.735 290.469Z" fill="#3C88B5"/>
<path fill-rule="evenodd" clip-rule="evenodd" d="M1172.73 176.469C1177.56 176.469 1181.47 172.558 1181.47 167.735C1181.47 162.911 1177.56 159 1172.73 159C1167.91 159 1164 162.911 1164 167.735C1164 172.558 1167.91 176.469 1172.73 176.469Z" fill="#0CE8E2"/>
<defs>
<linearGradient id="paint0_linear" x1="1199.88" y1="630.814" x2="1199.88" y2="179.014" gradientUnits="userSpaceOnUse">
<stop stop-color="#222222"/>
<stop offset="1" stop-color="#A09CB3"/>
</linearGradient>
</defs>
</svg>
