<svg width="50" height="50" viewBox="0 0 50 50" xmlns="http://www.w3.org/2000/svg">
<mask id="mask0" mask-type="alpha" maskUnits="userSpaceOnUse" x="5" y="9" width="41" height="33">
<path fill-rule="evenodd" clip-rule="evenodd" d="M43.0005 23.0005H11.8285L22.4145 12.4145C23.1945 11.6345 23.1945 10.3685 22.4145 9.5865C21.6325 8.8045 20.3665 8.8045 19.5865 9.5865L5.5865 23.5865C4.8045 24.3665 4.8045 25.6345 5.5865 26.4145L19.5865 40.4145C19.9765 40.8045 20.4885 41.0005 21.0005 41.0005C21.5125 41.0005 22.0245 40.8045 22.4145 40.4145C23.1945 39.6345 23.1945 38.3685 22.4145 37.5865L11.8285 27.0005H43.0005C44.1045 27.0005 45.0005 26.1045 45.0005 25.0005C45.0005 23.8965 44.1045 23.0005 43.0005 23.0005Z"/>
</mask>
<g mask="url(#mask0)">
<rect width="50" height="50"/>
</g>
</svg>
