<svg xmlns="http://www.w3.org/2000/svg" viewBox="0 0 90 90" width="512" height="512"><path d="M70 60a14.912 14.912 0 0 0-9.121 3.112L34.783 47.455c.131-.801.217-1.618.217-2.455 0-.839-.086-1.654-.217-2.456l26.096-15.657A14.9 14.9 0 0 0 70 30c8.283 0 15-6.717 15-15S78.283 0 70 0 55 6.717 55 15c0 .837.086 1.654.219 2.455L29.123 33.112A14.913 14.913 0 0 0 20 30c-8.283 0-15 6.717-15 15s6.717 15 15 15c3.438 0 6.594-1.167 9.123-3.113l26.096 15.657A14.953 14.953 0 0 0 55 75c0 8.283 6.717 15 15 15s15-6.717 15-15-6.717-15-15-15z" fill="#FFF"/></svg>